<mxfile host="app.diagrams.net" modified="2021-01-27T09:39:11.525Z" agent="5.0 (Windows NT 10.0; Win64; x64) AppleWebKit/537.36 (KHTML, like Gecko) Chrome/87.0.4280.88 Safari/537.36" etag="vPvKJKCjXWtael7CoO4K" version="14.2.4" type="github" pages="4">
  <diagram id="C5RBs43oDa-KdzZeNtuy" name="Page-1">
    <mxGraphModel dx="1422" dy="762" grid="1" gridSize="10" guides="1" tooltips="1" connect="1" arrows="1" fold="1" page="1" pageScale="1" pageWidth="827" pageHeight="1169" math="0" shadow="0">
      <root>
        <mxCell id="WIyWlLk6GJQsqaUBKTNV-0" />
        <mxCell id="WIyWlLk6GJQsqaUBKTNV-1" parent="WIyWlLk6GJQsqaUBKTNV-0" />
        <mxCell id="kUlPrEwuNCXVes-SSnmu-15" value="" style="rounded=0;whiteSpace=wrap;html=1;dashed=1;" vertex="1" parent="WIyWlLk6GJQsqaUBKTNV-1">
          <mxGeometry x="140" y="260" width="590" height="490" as="geometry" />
        </mxCell>
        <mxCell id="kUlPrEwuNCXVes-SSnmu-27" value="" style="edgeStyle=orthogonalEdgeStyle;rounded=0;orthogonalLoop=1;jettySize=auto;html=1;" edge="1" parent="WIyWlLk6GJQsqaUBKTNV-1" source="kUlPrEwuNCXVes-SSnmu-0" target="kUlPrEwuNCXVes-SSnmu-26">
          <mxGeometry relative="1" as="geometry" />
        </mxCell>
        <mxCell id="kUlPrEwuNCXVes-SSnmu-0" value="starter" style="strokeWidth=2;html=1;shape=mxgraph.flowchart.start_1;whiteSpace=wrap;" vertex="1" parent="WIyWlLk6GJQsqaUBKTNV-1">
          <mxGeometry x="379.5" y="10" width="110" height="70" as="geometry" />
        </mxCell>
        <mxCell id="kUlPrEwuNCXVes-SSnmu-11" value="" style="edgeStyle=orthogonalEdgeStyle;rounded=0;orthogonalLoop=1;jettySize=auto;html=1;" edge="1" parent="WIyWlLk6GJQsqaUBKTNV-1" source="kUlPrEwuNCXVes-SSnmu-7" target="kUlPrEwuNCXVes-SSnmu-9">
          <mxGeometry relative="1" as="geometry" />
        </mxCell>
        <mxCell id="kUlPrEwuNCXVes-SSnmu-12" style="edgeStyle=orthogonalEdgeStyle;rounded=0;orthogonalLoop=1;jettySize=auto;html=1;entryX=0.5;entryY=0;entryDx=0;entryDy=0;" edge="1" parent="WIyWlLk6GJQsqaUBKTNV-1" source="kUlPrEwuNCXVes-SSnmu-7" target="kUlPrEwuNCXVes-SSnmu-8">
          <mxGeometry relative="1" as="geometry">
            <mxPoint x="227" y="390" as="targetPoint" />
          </mxGeometry>
        </mxCell>
        <mxCell id="kUlPrEwuNCXVes-SSnmu-13" style="edgeStyle=orthogonalEdgeStyle;rounded=0;orthogonalLoop=1;jettySize=auto;html=1;entryX=0.5;entryY=0;entryDx=0;entryDy=0;" edge="1" parent="WIyWlLk6GJQsqaUBKTNV-1" source="kUlPrEwuNCXVes-SSnmu-7" target="kUlPrEwuNCXVes-SSnmu-10">
          <mxGeometry relative="1" as="geometry" />
        </mxCell>
        <mxCell id="kUlPrEwuNCXVes-SSnmu-7" value="@SpringBootApplication" style="rounded=1;whiteSpace=wrap;html=1;" vertex="1" parent="WIyWlLk6GJQsqaUBKTNV-1">
          <mxGeometry x="367" y="290" width="135" height="60" as="geometry" />
        </mxCell>
        <mxCell id="kUlPrEwuNCXVes-SSnmu-8" value="@ComponentScan" style="rounded=1;whiteSpace=wrap;html=1;" vertex="1" parent="WIyWlLk6GJQsqaUBKTNV-1">
          <mxGeometry x="160" y="390" width="130" height="60" as="geometry" />
        </mxCell>
        <mxCell id="kUlPrEwuNCXVes-SSnmu-9" value="@Configuration" style="rounded=1;whiteSpace=wrap;html=1;" vertex="1" parent="WIyWlLk6GJQsqaUBKTNV-1">
          <mxGeometry x="361.5" y="390" width="146" height="60" as="geometry" />
        </mxCell>
        <mxCell id="kUlPrEwuNCXVes-SSnmu-22" value="" style="edgeStyle=orthogonalEdgeStyle;rounded=0;orthogonalLoop=1;jettySize=auto;html=1;" edge="1" parent="WIyWlLk6GJQsqaUBKTNV-1" source="kUlPrEwuNCXVes-SSnmu-10" target="kUlPrEwuNCXVes-SSnmu-21">
          <mxGeometry relative="1" as="geometry" />
        </mxCell>
        <mxCell id="kUlPrEwuNCXVes-SSnmu-10" value="@EnableAutoConfiguration" style="rounded=1;whiteSpace=wrap;html=1;" vertex="1" parent="WIyWlLk6GJQsqaUBKTNV-1">
          <mxGeometry x="562" y="390" width="150" height="60" as="geometry" />
        </mxCell>
        <mxCell id="kUlPrEwuNCXVes-SSnmu-16" value="Spring Boot自动装配机制" style="text;html=1;align=center;verticalAlign=middle;resizable=0;points=[];autosize=1;fillColor=#f8cecc;strokeColor=#b85450;" vertex="1" parent="WIyWlLk6GJQsqaUBKTNV-1">
          <mxGeometry x="562" y="240" width="150" height="20" as="geometry" />
        </mxCell>
        <mxCell id="kUlPrEwuNCXVes-SSnmu-17" value="启用Spring Boot的自动配置机制" style="text;html=1;resizable=0;autosize=1;align=center;verticalAlign=middle;points=[];fillColor=none;strokeColor=none;rounded=0;dashed=1;" vertex="1" parent="WIyWlLk6GJQsqaUBKTNV-1">
          <mxGeometry x="540" y="450" width="190" height="20" as="geometry" />
        </mxCell>
        <mxCell id="kUlPrEwuNCXVes-SSnmu-24" value="" style="edgeStyle=orthogonalEdgeStyle;rounded=0;orthogonalLoop=1;jettySize=auto;html=1;" edge="1" parent="WIyWlLk6GJQsqaUBKTNV-1" source="kUlPrEwuNCXVes-SSnmu-21" target="kUlPrEwuNCXVes-SSnmu-23">
          <mxGeometry relative="1" as="geometry" />
        </mxCell>
        <mxCell id="kUlPrEwuNCXVes-SSnmu-21" value="加载自动装配注解@Import" style="whiteSpace=wrap;html=1;aspect=fixed;" vertex="1" parent="WIyWlLk6GJQsqaUBKTNV-1">
          <mxGeometry x="597" y="520" width="80" height="80" as="geometry" />
        </mxCell>
        <mxCell id="kUlPrEwuNCXVes-SSnmu-23" value="加载自动装配类:&lt;br&gt;AutoConfigurationImportSelector" style="whiteSpace=wrap;html=1;aspect=fixed;" vertex="1" parent="WIyWlLk6GJQsqaUBKTNV-1">
          <mxGeometry x="597" y="640" width="80" height="80" as="geometry" />
        </mxCell>
        <mxCell id="kUlPrEwuNCXVes-SSnmu-28" value="" style="edgeStyle=orthogonalEdgeStyle;rounded=0;orthogonalLoop=1;jettySize=auto;html=1;" edge="1" parent="WIyWlLk6GJQsqaUBKTNV-1" source="kUlPrEwuNCXVes-SSnmu-26" target="kUlPrEwuNCXVes-SSnmu-7">
          <mxGeometry relative="1" as="geometry" />
        </mxCell>
        <mxCell id="kUlPrEwuNCXVes-SSnmu-26" value="SpringBootApplication.run()&lt;br&gt;调用refreshContext()方法解析@SpringBootApplication注解" style="rounded=1;whiteSpace=wrap;html=1;absoluteArcSize=1;arcSize=14;strokeWidth=2;" vertex="1" parent="WIyWlLk6GJQsqaUBKTNV-1">
          <mxGeometry x="385" y="120" width="100" height="100" as="geometry" />
        </mxCell>
        <mxCell id="U9q_NhsRiUjpnmP7cyMY-1" style="edgeStyle=orthogonalEdgeStyle;rounded=0;orthogonalLoop=1;jettySize=auto;html=1;entryX=0;entryY=0.5;entryDx=0;entryDy=0;" edge="1" parent="WIyWlLk6GJQsqaUBKTNV-1" source="U9q_NhsRiUjpnmP7cyMY-0" target="kUlPrEwuNCXVes-SSnmu-8">
          <mxGeometry relative="1" as="geometry" />
        </mxCell>
        <mxCell id="U9q_NhsRiUjpnmP7cyMY-0" value="" style="strokeWidth=2;html=1;shape=mxgraph.flowchart.annotation_2;align=left;labelPosition=right;pointerEvents=1;rotation=-180;" vertex="1" parent="WIyWlLk6GJQsqaUBKTNV-1">
          <mxGeometry x="70" y="370" width="50" height="100" as="geometry" />
        </mxCell>
        <mxCell id="U9q_NhsRiUjpnmP7cyMY-2" value="&lt;font style=&quot;font-size: 8px&quot;&gt;扫描被&lt;br style=&quot;font-size: 8px&quot;&gt;compont&lt;br style=&quot;font-size: 8px&quot;&gt;注解的bean，&lt;br style=&quot;font-size: 8px&quot;&gt;默认扫描启&lt;br style=&quot;font-size: 8px&quot;&gt;动类同包下&lt;br style=&quot;font-size: 8px&quot;&gt;的所有类&lt;/font&gt;" style="text;html=1;align=left;verticalAlign=middle;resizable=0;points=[];autosize=1;" vertex="1" parent="WIyWlLk6GJQsqaUBKTNV-1">
          <mxGeometry x="25" y="375" width="90" height="90" as="geometry" />
        </mxCell>
        <mxCell id="U9q_NhsRiUjpnmP7cyMY-4" style="edgeStyle=orthogonalEdgeStyle;rounded=0;orthogonalLoop=1;jettySize=auto;html=1;entryX=0;entryY=0.5;entryDx=0;entryDy=0;" edge="1" parent="WIyWlLk6GJQsqaUBKTNV-1" source="U9q_NhsRiUjpnmP7cyMY-3" target="kUlPrEwuNCXVes-SSnmu-9">
          <mxGeometry relative="1" as="geometry">
            <Array as="points">
              <mxPoint x="310" y="585" />
              <mxPoint x="310" y="420" />
            </Array>
          </mxGeometry>
        </mxCell>
        <mxCell id="U9q_NhsRiUjpnmP7cyMY-3" value="" style="strokeWidth=2;html=1;shape=mxgraph.flowchart.annotation_2;align=left;labelPosition=right;pointerEvents=1;rotation=-180;" vertex="1" parent="WIyWlLk6GJQsqaUBKTNV-1">
          <mxGeometry x="70" y="535" width="50" height="100" as="geometry" />
        </mxCell>
        <mxCell id="U9q_NhsRiUjpnmP7cyMY-5" value="&lt;font style=&quot;font-size: 8px&quot;&gt;&lt;span style=&quot;color: rgb(51 , 51 , 51) ; background-color: rgb(255 , 255 , 255) ; font-size: 8px&quot;&gt;允许在上&lt;br style=&quot;font-size: 8px&quot;&gt;下文中注&lt;br style=&quot;font-size: 8px&quot;&gt;册额外的&amp;nbsp;&lt;/span&gt;&lt;br style=&quot;color: rgb(51 , 51 , 51) ; font-size: 8px&quot;&gt;&lt;span style=&quot;color: rgb(51 , 51 , 51) ; background-color: rgb(255 , 255 , 255) ; font-size: 8px&quot;&gt;bean 或&lt;br style=&quot;font-size: 8px&quot;&gt;导入其他&lt;br style=&quot;font-size: 8px&quot;&gt;配置类&lt;/span&gt;&lt;/font&gt;" style="text;html=1;align=left;verticalAlign=middle;resizable=0;points=[];autosize=1;fontSize=10;textDirection=ltr;" vertex="1" parent="WIyWlLk6GJQsqaUBKTNV-1">
          <mxGeometry x="35" y="545" width="70" height="80" as="geometry" />
        </mxCell>
      </root>
    </mxGraphModel>
  </diagram>
  <diagram id="TbJNindFFj_Q6GL7fyGs" name="第 2 页">
    <mxGraphModel dx="1422" dy="762" grid="1" gridSize="10" guides="1" tooltips="1" connect="1" arrows="1" fold="1" page="1" pageScale="1" pageWidth="827" pageHeight="1169" math="0" shadow="0">
      <root>
        <mxCell id="D_n4YzFVA9OjlGLzKGgc-0" />
        <mxCell id="D_n4YzFVA9OjlGLzKGgc-1" parent="D_n4YzFVA9OjlGLzKGgc-0" />
        <mxCell id="rSaGffumkdHnOjkeXgfb-2" value="" style="edgeStyle=orthogonalEdgeStyle;rounded=0;orthogonalLoop=1;jettySize=auto;html=1;fontSize=10;" edge="1" parent="D_n4YzFVA9OjlGLzKGgc-1" source="rSaGffumkdHnOjkeXgfb-0" target="rSaGffumkdHnOjkeXgfb-1">
          <mxGeometry relative="1" as="geometry" />
        </mxCell>
        <mxCell id="rSaGffumkdHnOjkeXgfb-0" value="EnableAutoConfiguraction" style="strokeWidth=2;html=1;shape=mxgraph.flowchart.terminator;whiteSpace=wrap;fontSize=10;" vertex="1" parent="D_n4YzFVA9OjlGLzKGgc-1">
          <mxGeometry x="334" y="20" width="160" height="90" as="geometry" />
        </mxCell>
        <mxCell id="rSaGffumkdHnOjkeXgfb-5" value="" style="edgeStyle=orthogonalEdgeStyle;rounded=0;orthogonalLoop=1;jettySize=auto;html=1;fontSize=10;" edge="1" parent="D_n4YzFVA9OjlGLzKGgc-1" source="rSaGffumkdHnOjkeXgfb-1" target="rSaGffumkdHnOjkeXgfb-3">
          <mxGeometry relative="1" as="geometry" />
        </mxCell>
        <mxCell id="rSaGffumkdHnOjkeXgfb-1" value="AutoConfiguractionImportSelector" style="rounded=0;whiteSpace=wrap;html=1;fontSize=10;" vertex="1" parent="D_n4YzFVA9OjlGLzKGgc-1">
          <mxGeometry x="316" y="160" width="196" height="60" as="geometry" />
        </mxCell>
        <mxCell id="rSaGffumkdHnOjkeXgfb-8" value="" style="edgeStyle=orthogonalEdgeStyle;rounded=0;orthogonalLoop=1;jettySize=auto;html=1;fontSize=10;" edge="1" parent="D_n4YzFVA9OjlGLzKGgc-1" source="rSaGffumkdHnOjkeXgfb-3" target="rSaGffumkdHnOjkeXgfb-7">
          <mxGeometry relative="1" as="geometry" />
        </mxCell>
        <mxCell id="rSaGffumkdHnOjkeXgfb-3" value="ImportSelector" style="rounded=0;whiteSpace=wrap;html=1;fontSize=10;" vertex="1" parent="D_n4YzFVA9OjlGLzKGgc-1">
          <mxGeometry x="354" y="260" width="120" height="60" as="geometry" />
        </mxCell>
        <mxCell id="rSaGffumkdHnOjkeXgfb-4" value="加载自动装配类" style="text;html=1;align=center;verticalAlign=middle;resizable=0;points=[];autosize=1;fontSize=10;" vertex="1" parent="D_n4YzFVA9OjlGLzKGgc-1">
          <mxGeometry x="410" y="120" width="100" height="20" as="geometry" />
        </mxCell>
        <mxCell id="rSaGffumkdHnOjkeXgfb-6" value="实现接口" style="text;html=1;align=center;verticalAlign=middle;resizable=0;points=[];autosize=1;fontSize=10;" vertex="1" parent="D_n4YzFVA9OjlGLzKGgc-1">
          <mxGeometry x="410" y="230" width="60" height="20" as="geometry" />
        </mxCell>
        <mxCell id="rSaGffumkdHnOjkeXgfb-11" value="" style="edgeStyle=orthogonalEdgeStyle;rounded=0;orthogonalLoop=1;jettySize=auto;html=1;fontSize=10;" edge="1" parent="D_n4YzFVA9OjlGLzKGgc-1" source="rSaGffumkdHnOjkeXgfb-7" target="rSaGffumkdHnOjkeXgfb-10">
          <mxGeometry relative="1" as="geometry" />
        </mxCell>
        <mxCell id="rSaGffumkdHnOjkeXgfb-7" value="实现selectorImport()方法，获取所有需要装配的类加载到IOC容器中" style="rounded=0;whiteSpace=wrap;html=1;fontSize=10;" vertex="1" parent="D_n4YzFVA9OjlGLzKGgc-1">
          <mxGeometry x="354" y="380" width="120" height="60" as="geometry" />
        </mxCell>
        <mxCell id="rSaGffumkdHnOjkeXgfb-9" value="实现方法" style="text;html=1;align=center;verticalAlign=middle;resizable=0;points=[];autosize=1;fontSize=10;" vertex="1" parent="D_n4YzFVA9OjlGLzKGgc-1">
          <mxGeometry x="410" y="340" width="60" height="20" as="geometry" />
        </mxCell>
        <mxCell id="rSaGffumkdHnOjkeXgfb-15" value="" style="edgeStyle=orthogonalEdgeStyle;rounded=0;orthogonalLoop=1;jettySize=auto;html=1;fontSize=10;" edge="1" parent="D_n4YzFVA9OjlGLzKGgc-1" source="rSaGffumkdHnOjkeXgfb-10" target="rSaGffumkdHnOjkeXgfb-14">
          <mxGeometry relative="1" as="geometry" />
        </mxCell>
        <mxCell id="rSaGffumkdHnOjkeXgfb-18" value="" style="edgeStyle=orthogonalEdgeStyle;rounded=0;orthogonalLoop=1;jettySize=auto;html=1;fontSize=10;" edge="1" parent="D_n4YzFVA9OjlGLzKGgc-1" source="rSaGffumkdHnOjkeXgfb-10" target="rSaGffumkdHnOjkeXgfb-17">
          <mxGeometry relative="1" as="geometry" />
        </mxCell>
        <mxCell id="rSaGffumkdHnOjkeXgfb-10" value="getAutoConfiguractionEntry()&lt;br&gt;这个方法主要是负责加载自动配置类的" style="rounded=1;whiteSpace=wrap;html=1;fontSize=10;" vertex="1" parent="D_n4YzFVA9OjlGLzKGgc-1">
          <mxGeometry x="334" y="490" width="160" height="60" as="geometry" />
        </mxCell>
        <mxCell id="rSaGffumkdHnOjkeXgfb-12" value="调用" style="text;html=1;align=center;verticalAlign=middle;resizable=0;points=[];autosize=1;fontSize=10;" vertex="1" parent="D_n4YzFVA9OjlGLzKGgc-1">
          <mxGeometry x="410" y="450" width="40" height="20" as="geometry" />
        </mxCell>
        <mxCell id="rSaGffumkdHnOjkeXgfb-14" value="" style="strokeWidth=2;html=1;shape=mxgraph.flowchart.annotation_2;align=left;labelPosition=right;pointerEvents=1;fontSize=10;" vertex="1" parent="D_n4YzFVA9OjlGLzKGgc-1">
          <mxGeometry x="560" y="470" width="50" height="100" as="geometry" />
        </mxCell>
        <mxCell id="rSaGffumkdHnOjkeXgfb-16" value="1.判断自动装配是否打开&lt;br&gt;2.获取EnableAutoConfiguraction&lt;br&gt;注解中的exclude和excludeName&lt;br&gt;3.获取需要自动装配的所有类，读取&lt;br&gt;MATE-INF/spring.factories&lt;br&gt;加载配置类到容器中" style="text;html=1;resizable=0;autosize=1;align=left;verticalAlign=middle;points=[];fillColor=none;strokeColor=none;rounded=0;fontSize=10;" vertex="1" parent="D_n4YzFVA9OjlGLzKGgc-1">
          <mxGeometry x="590" y="480" width="210" height="80" as="geometry" />
        </mxCell>
        <mxCell id="rSaGffumkdHnOjkeXgfb-21" value="" style="edgeStyle=orthogonalEdgeStyle;rounded=0;orthogonalLoop=1;jettySize=auto;html=1;fontSize=10;" edge="1" parent="D_n4YzFVA9OjlGLzKGgc-1" source="rSaGffumkdHnOjkeXgfb-17" target="rSaGffumkdHnOjkeXgfb-20">
          <mxGeometry relative="1" as="geometry" />
        </mxCell>
        <mxCell id="rSaGffumkdHnOjkeXgfb-17" value="filter" style="rounded=0;whiteSpace=wrap;html=1;fontSize=10;" vertex="1" parent="D_n4YzFVA9OjlGLzKGgc-1">
          <mxGeometry x="354" y="610" width="120" height="60" as="geometry" />
        </mxCell>
        <mxCell id="rSaGffumkdHnOjkeXgfb-19" value="条件过滤" style="text;html=1;align=center;verticalAlign=middle;resizable=0;points=[];autosize=1;fontSize=10;" vertex="1" parent="D_n4YzFVA9OjlGLzKGgc-1">
          <mxGeometry x="414" y="570" width="60" height="20" as="geometry" />
        </mxCell>
        <mxCell id="rSaGffumkdHnOjkeXgfb-20" value="ConditionOnXXX&lt;br&gt;条件注解按需加载配置类" style="rounded=0;whiteSpace=wrap;html=1;fontSize=10;" vertex="1" parent="D_n4YzFVA9OjlGLzKGgc-1">
          <mxGeometry x="354" y="720" width="120" height="60" as="geometry" />
        </mxCell>
        <mxCell id="rSaGffumkdHnOjkeXgfb-22" value="按需加载配置类" style="text;html=1;align=center;verticalAlign=middle;resizable=0;points=[];autosize=1;fontSize=10;" vertex="1" parent="D_n4YzFVA9OjlGLzKGgc-1">
          <mxGeometry x="410" y="680" width="100" height="20" as="geometry" />
        </mxCell>
      </root>
    </mxGraphModel>
  </diagram>
  <diagram id="2ObyzDSAtjZpXg6_8Lhi" name="第 3 页">
    <mxGraphModel dx="1422" dy="762" grid="1" gridSize="10" guides="1" tooltips="1" connect="1" arrows="1" fold="1" page="1" pageScale="1" pageWidth="827" pageHeight="1169" math="0" shadow="0">
      <root>
        <mxCell id="7xgE5kDoRnbJTqN6vRrQ-0" />
        <mxCell id="7xgE5kDoRnbJTqN6vRrQ-1" parent="7xgE5kDoRnbJTqN6vRrQ-0" />
        <mxCell id="7vbrTkkXB95xe3yE8jen-5" value="" style="edgeStyle=orthogonalEdgeStyle;rounded=0;orthogonalLoop=1;jettySize=auto;html=1;fontSize=10;" edge="1" parent="7xgE5kDoRnbJTqN6vRrQ-1" source="7vbrTkkXB95xe3yE8jen-0" target="7vbrTkkXB95xe3yE8jen-4">
          <mxGeometry relative="1" as="geometry" />
        </mxCell>
        <mxCell id="7vbrTkkXB95xe3yE8jen-0" value="synchronice" style="strokeWidth=2;html=1;shape=mxgraph.flowchart.terminator;whiteSpace=wrap;fontSize=10;" vertex="1" parent="7xgE5kDoRnbJTqN6vRrQ-1">
          <mxGeometry x="120" y="20" width="100" height="60" as="geometry" />
        </mxCell>
        <mxCell id="7vbrTkkXB95xe3yE8jen-8" value="" style="edgeStyle=orthogonalEdgeStyle;rounded=0;orthogonalLoop=1;jettySize=auto;html=1;fontSize=10;" edge="1" parent="7xgE5kDoRnbJTqN6vRrQ-1" source="7vbrTkkXB95xe3yE8jen-1" target="7vbrTkkXB95xe3yE8jen-6">
          <mxGeometry relative="1" as="geometry" />
        </mxCell>
        <mxCell id="7vbrTkkXB95xe3yE8jen-1" value="ReentrantLock" style="strokeWidth=2;html=1;shape=mxgraph.flowchart.terminator;whiteSpace=wrap;fontSize=10;" vertex="1" parent="7xgE5kDoRnbJTqN6vRrQ-1">
          <mxGeometry x="590" y="20" width="100" height="60" as="geometry" />
        </mxCell>
        <mxCell id="7vbrTkkXB95xe3yE8jen-2" value="" style="shape=flexArrow;endArrow=classic;startArrow=classic;html=1;fontSize=10;exitX=1;exitY=0.5;exitDx=0;exitDy=0;exitPerimeter=0;entryX=0;entryY=0.5;entryDx=0;entryDy=0;entryPerimeter=0;" edge="1" parent="7xgE5kDoRnbJTqN6vRrQ-1" source="7vbrTkkXB95xe3yE8jen-0" target="7vbrTkkXB95xe3yE8jen-1">
          <mxGeometry width="50" height="50" relative="1" as="geometry">
            <mxPoint x="380" y="120" as="sourcePoint" />
            <mxPoint x="440" y="90" as="targetPoint" />
          </mxGeometry>
        </mxCell>
        <mxCell id="7vbrTkkXB95xe3yE8jen-3" value="VS" style="text;html=1;align=center;verticalAlign=middle;resizable=0;points=[];autosize=1;fontSize=10;" vertex="1" parent="7xgE5kDoRnbJTqN6vRrQ-1">
          <mxGeometry x="380" y="20" width="30" height="20" as="geometry" />
        </mxCell>
        <mxCell id="7vbrTkkXB95xe3yE8jen-12" value="" style="edgeStyle=orthogonalEdgeStyle;rounded=0;orthogonalLoop=1;jettySize=auto;html=1;fontSize=10;" edge="1" parent="7xgE5kDoRnbJTqN6vRrQ-1" source="7vbrTkkXB95xe3yE8jen-4" target="7vbrTkkXB95xe3yE8jen-9">
          <mxGeometry relative="1" as="geometry" />
        </mxCell>
        <mxCell id="7vbrTkkXB95xe3yE8jen-4" value="抛出异常立即释放锁" style="rounded=1;whiteSpace=wrap;html=1;fontSize=10;" vertex="1" parent="7xgE5kDoRnbJTqN6vRrQ-1">
          <mxGeometry x="110" y="110" width="120" height="60" as="geometry" />
        </mxCell>
        <mxCell id="7vbrTkkXB95xe3yE8jen-11" value="" style="edgeStyle=orthogonalEdgeStyle;rounded=0;orthogonalLoop=1;jettySize=auto;html=1;fontSize=10;" edge="1" parent="7xgE5kDoRnbJTqN6vRrQ-1" source="7vbrTkkXB95xe3yE8jen-6" target="7vbrTkkXB95xe3yE8jen-10">
          <mxGeometry relative="1" as="geometry" />
        </mxCell>
        <mxCell id="7vbrTkkXB95xe3yE8jen-6" value="抛出异常不释放锁，需手动是否锁资源" style="rounded=1;whiteSpace=wrap;html=1;fontSize=10;align=center;" vertex="1" parent="7xgE5kDoRnbJTqN6vRrQ-1">
          <mxGeometry x="580" y="110" width="120" height="60" as="geometry" />
        </mxCell>
        <mxCell id="7vbrTkkXB95xe3yE8jen-14" value="" style="edgeStyle=orthogonalEdgeStyle;rounded=0;orthogonalLoop=1;jettySize=auto;html=1;fontSize=10;" edge="1" parent="7xgE5kDoRnbJTqN6vRrQ-1" source="7vbrTkkXB95xe3yE8jen-9" target="7vbrTkkXB95xe3yE8jen-13">
          <mxGeometry relative="1" as="geometry" />
        </mxCell>
        <mxCell id="7vbrTkkXB95xe3yE8jen-9" value="仅支持非公平锁" style="rounded=1;whiteSpace=wrap;html=1;fontSize=10;align=center;" vertex="1" parent="7xgE5kDoRnbJTqN6vRrQ-1">
          <mxGeometry x="110" y="210" width="120" height="60" as="geometry" />
        </mxCell>
        <mxCell id="7vbrTkkXB95xe3yE8jen-16" value="" style="edgeStyle=orthogonalEdgeStyle;rounded=0;orthogonalLoop=1;jettySize=auto;html=1;fontSize=10;" edge="1" parent="7xgE5kDoRnbJTqN6vRrQ-1" source="7vbrTkkXB95xe3yE8jen-10" target="7vbrTkkXB95xe3yE8jen-15">
          <mxGeometry relative="1" as="geometry" />
        </mxCell>
        <mxCell id="7vbrTkkXB95xe3yE8jen-10" value="可通过构造函数设置非公平锁与公平锁" style="rounded=1;whiteSpace=wrap;html=1;fontSize=10;align=center;" vertex="1" parent="7xgE5kDoRnbJTqN6vRrQ-1">
          <mxGeometry x="580" y="210" width="120" height="60" as="geometry" />
        </mxCell>
        <mxCell id="7vbrTkkXB95xe3yE8jen-18" value="" style="edgeStyle=orthogonalEdgeStyle;rounded=0;orthogonalLoop=1;jettySize=auto;html=1;fontSize=10;" edge="1" parent="7xgE5kDoRnbJTqN6vRrQ-1" source="7vbrTkkXB95xe3yE8jen-13" target="7vbrTkkXB95xe3yE8jen-17">
          <mxGeometry relative="1" as="geometry" />
        </mxCell>
        <mxCell id="7vbrTkkXB95xe3yE8jen-13" value="是Java的关键字，原生语法层面的互斥锁，需要JVM实现的" style="rounded=1;whiteSpace=wrap;html=1;fontSize=10;align=center;" vertex="1" parent="7xgE5kDoRnbJTqN6vRrQ-1">
          <mxGeometry x="110" y="310" width="120" height="60" as="geometry" />
        </mxCell>
        <mxCell id="7vbrTkkXB95xe3yE8jen-21" value="" style="edgeStyle=orthogonalEdgeStyle;rounded=0;orthogonalLoop=1;jettySize=auto;html=1;fontSize=10;" edge="1" parent="7xgE5kDoRnbJTqN6vRrQ-1" source="7vbrTkkXB95xe3yE8jen-15" target="7vbrTkkXB95xe3yE8jen-20">
          <mxGeometry relative="1" as="geometry" />
        </mxCell>
        <mxCell id="7vbrTkkXB95xe3yE8jen-15" value="它是JDK1.5之后提供的API层面的互斥锁，需要Lock()和Unlock()方法配合try/finally语句块来完成的。" style="rounded=1;whiteSpace=wrap;html=1;fontSize=10;align=center;" vertex="1" parent="7xgE5kDoRnbJTqN6vRrQ-1">
          <mxGeometry x="580" y="310" width="120" height="70" as="geometry" />
        </mxCell>
        <mxCell id="7vbrTkkXB95xe3yE8jen-17" value="若有一个线程获得锁之后，其他线程将会进入阻塞状态，且不可中断阻塞状态。" style="rounded=1;whiteSpace=wrap;html=1;fontSize=10;align=center;" vertex="1" parent="7xgE5kDoRnbJTqN6vRrQ-1">
          <mxGeometry x="110" y="410" width="120" height="60" as="geometry" />
        </mxCell>
        <mxCell id="7vbrTkkXB95xe3yE8jen-19" style="edgeStyle=orthogonalEdgeStyle;rounded=0;orthogonalLoop=1;jettySize=auto;html=1;exitX=0.5;exitY=1;exitDx=0;exitDy=0;fontSize=10;" edge="1" parent="7xgE5kDoRnbJTqN6vRrQ-1" source="7vbrTkkXB95xe3yE8jen-17" target="7vbrTkkXB95xe3yE8jen-17">
          <mxGeometry relative="1" as="geometry" />
        </mxCell>
        <mxCell id="7vbrTkkXB95xe3yE8jen-20" value="若有一个线程获得锁之后，其他线程则会进入等待状态，可执行中断等待状态。" style="rounded=1;whiteSpace=wrap;html=1;fontSize=10;align=center;" vertex="1" parent="7xgE5kDoRnbJTqN6vRrQ-1">
          <mxGeometry x="580" y="420" width="120" height="60" as="geometry" />
        </mxCell>
        <mxCell id="7vbrTkkXB95xe3yE8jen-22" value="" style="endArrow=none;html=1;fontSize=10;entryX=0;entryY=0.5;entryDx=0;entryDy=0;exitX=1;exitY=0.5;exitDx=0;exitDy=0;" edge="1" parent="7xgE5kDoRnbJTqN6vRrQ-1" source="7vbrTkkXB95xe3yE8jen-9" target="7vbrTkkXB95xe3yE8jen-10">
          <mxGeometry width="50" height="50" relative="1" as="geometry">
            <mxPoint x="390" y="420" as="sourcePoint" />
            <mxPoint x="440" y="370" as="targetPoint" />
          </mxGeometry>
        </mxCell>
        <mxCell id="7vbrTkkXB95xe3yE8jen-23" value="非公平锁与公平锁的意思是指当非公平锁的线程&lt;br&gt;释放锁之后，等待获取锁的线程中，获取锁的几率是&lt;br&gt;相同的。而公平锁则是按照等待队列的顺序获取锁的。" style="text;html=1;align=left;verticalAlign=middle;resizable=0;points=[];autosize=1;fontSize=10;" vertex="1" parent="7xgE5kDoRnbJTqN6vRrQ-1">
          <mxGeometry x="260" y="200" width="300" height="40" as="geometry" />
        </mxCell>
      </root>
    </mxGraphModel>
  </diagram>
  <diagram id="HWDEVs1R8hiSCRHKuRQ8" name="第 4 页">
    <mxGraphModel dx="1422" dy="762" grid="1" gridSize="10" guides="1" tooltips="1" connect="1" arrows="1" fold="1" page="1" pageScale="1" pageWidth="827" pageHeight="1169" math="0" shadow="0">
      <root>
        <mxCell id="mlSmTyjwXThgYXzq1Clj-0" />
        <mxCell id="mlSmTyjwXThgYXzq1Clj-1" parent="mlSmTyjwXThgYXzq1Clj-0" />
        <mxCell id="mlSmTyjwXThgYXzq1Clj-4" value="" style="edgeStyle=orthogonalEdgeStyle;rounded=0;orthogonalLoop=1;jettySize=auto;html=1;fontSize=10;" edge="1" parent="mlSmTyjwXThgYXzq1Clj-1" source="mlSmTyjwXThgYXzq1Clj-2" target="mlSmTyjwXThgYXzq1Clj-3">
          <mxGeometry relative="1" as="geometry" />
        </mxCell>
        <mxCell id="mlSmTyjwXThgYXzq1Clj-2" value="Spring IOC" style="strokeWidth=2;html=1;shape=mxgraph.flowchart.terminator;whiteSpace=wrap;fontSize=10;align=center;" vertex="1" parent="mlSmTyjwXThgYXzq1Clj-1">
          <mxGeometry x="350" y="20" width="100" height="60" as="geometry" />
        </mxCell>
        <mxCell id="mlSmTyjwXThgYXzq1Clj-7" value="" style="edgeStyle=orthogonalEdgeStyle;rounded=0;orthogonalLoop=1;jettySize=auto;html=1;fontSize=10;" edge="1" parent="mlSmTyjwXThgYXzq1Clj-1" source="mlSmTyjwXThgYXzq1Clj-3" target="mlSmTyjwXThgYXzq1Clj-6">
          <mxGeometry relative="1" as="geometry" />
        </mxCell>
        <mxCell id="mlSmTyjwXThgYXzq1Clj-3" value="控制对象的生命周期" style="rounded=1;whiteSpace=wrap;html=1;fontSize=10;align=center;" vertex="1" parent="mlSmTyjwXThgYXzq1Clj-1">
          <mxGeometry x="340" y="120" width="120" height="60" as="geometry" />
        </mxCell>
        <mxCell id="mlSmTyjwXThgYXzq1Clj-5" value="控制什么" style="text;html=1;align=center;verticalAlign=middle;resizable=0;points=[];autosize=1;fontSize=10;" vertex="1" parent="mlSmTyjwXThgYXzq1Clj-1">
          <mxGeometry x="400" y="90" width="60" height="20" as="geometry" />
        </mxCell>
        <mxCell id="mlSmTyjwXThgYXzq1Clj-6" value="即：将对象的控制权交给IOC容器" style="rounded=1;whiteSpace=wrap;html=1;fontSize=10;align=center;" vertex="1" parent="mlSmTyjwXThgYXzq1Clj-1">
          <mxGeometry x="340" y="220" width="120" height="60" as="geometry" />
        </mxCell>
        <mxCell id="mlSmTyjwXThgYXzq1Clj-8" value="反转什么" style="text;html=1;align=center;verticalAlign=middle;resizable=0;points=[];autosize=1;fontSize=10;" vertex="1" parent="mlSmTyjwXThgYXzq1Clj-1">
          <mxGeometry x="400" y="190" width="60" height="20" as="geometry" />
        </mxCell>
      </root>
    </mxGraphModel>
  </diagram>
</mxfile>
